<svg xmlns="http://www.w3.org/2000/svg" width="512" height="512" viewBox="0 0 512 512">
  <defs>
    <linearGradient id="bgBase" x1="0" y1="0" x2="1" y2="1">
      <stop offset="0" stop-color="#4A140E"/>
      <stop offset="0.55" stop-color="#2B103D"/>
      <stop offset="1" stop-color="#0E1B4A"/>
    </linearGradient>

    <radialGradient id="glowOrange" cx="0.18" cy="0.16" r="0.75">
      <stop offset="0" stop-color="#FF7A00" stop-opacity="0.90"/>
      <stop offset="0.45" stop-color="#FF7A00" stop-opacity="0.22"/>
      <stop offset="1" stop-color="#FF7A00" stop-opacity="0"/>
    </radialGradient>

    <radialGradient id="glowBlue" cx="0.86" cy="0.86" r="0.80">
      <stop offset="0" stop-color="#2B6BFF" stop-opacity="0.55"/>
      <stop offset="0.55" stop-color="#2B6BFF" stop-opacity="0.14"/>
      <stop offset="1" stop-color="#2B6BFF" stop-opacity="0"/>
    </radialGradient>

    <linearGradient id="outerStroke" x1="0" y1="0" x2="1" y2="1">
      <stop offset="0" stop-color="#FFFFFF" stop-opacity="0.36"/>
      <stop offset="0.55" stop-color="#FFFFFF" stop-opacity="0.12"/>
      <stop offset="1" stop-color="#BFE7FF" stop-opacity="0.22"/>
    </linearGradient>

    <linearGradient id="glassFill" x1="0" y1="0" x2="0" y2="1">
      <stop offset="0" stop-color="#FFFFFF" stop-opacity="0.26"/>
      <stop offset="1" stop-color="#D6F2FF" stop-opacity="0.12"/>
    </linearGradient>

    <linearGradient id="glassEdge" x1="0" y1="0" x2="1" y2="1">
      <stop offset="0" stop-color="#FFFFFF" stop-opacity="0.55"/>
      <stop offset="1" stop-color="#BFE7FF" stop-opacity="0.28"/>
    </linearGradient>

    <linearGradient id="pillFill" x1="0" y1="0" x2="0" y2="1">
      <stop offset="0" stop-color="#FFFFFF" stop-opacity="0.16"/>
      <stop offset="1" stop-color="#0B1D3A" stop-opacity="0.18"/>
    </linearGradient>

    <filter id="glassGlow" x="-25%" y="-25%" width="150%" height="150%">
      <feGaussianBlur stdDeviation="6" result="b"/>
      <feColorMatrix in="b" type="matrix"
        values="1 0 0 0 0
                0 1 0 0 0
                0 0 1 0 0
                0 0 0 0.28 0" result="g"/>
      <feMerge>
        <feMergeNode in="g"/>
        <feMergeNode in="SourceGraphic"/>
      </feMerge>
    </filter>

    <filter id="softShadow" x="-20%" y="-20%" width="140%" height="140%">
      <feDropShadow dx="0" dy="10" stdDeviation="14" flood-color="#000000" flood-opacity="0.28"/>
    </filter>
  </defs>

  <!-- Background -->
  <rect width="512" height="512" rx="120" fill="url(#bgBase)"/>
  <rect width="512" height="512" rx="120" fill="url(#glowOrange)"/>
  <rect width="512" height="512" rx="120" fill="url(#glowBlue)"/>

  <!-- Outer border -->
  <rect x="8" y="8" width="496" height="496" rx="116"
        fill="none" stroke="url(#outerStroke)" stroke-width="8"/>

  <!-- Unraid bars -->
  <g filter="url(#glassGlow)" transform="translate(-62,-55)">
    <rect x="136" y="190" width="20" height="108" rx="10" fill="url(#glassFill)" stroke="url(#glassEdge)" stroke-width="3"/>
    <rect x="180" y="252" width="20" height="70"  rx="10" fill="url(#glassFill)" stroke="url(#glassEdge)" stroke-width="3"/>
    <rect x="224" y="292" width="20" height="52"  rx="10" fill="url(#glassFill)" stroke="url(#glassEdge)" stroke-width="3"/>
    <rect x="268" y="254" width="20" height="80"  rx="10" fill="url(#glassFill)" stroke="url(#glassEdge)" stroke-width="3"/>
    <rect x="312" y="186" width="20" height="132" rx="10" fill="url(#glassFill)" stroke="url(#glassEdge)" stroke-width="3"/>
    <rect x="356" y="148" width="20" height="96"  rx="10" fill="url(#glassFill)" stroke="url(#glassEdge)" stroke-width="3"/>
    <rect x="400" y="122" width="20" height="72"  rx="10" fill="url(#glassFill)" stroke="url(#glassEdge)" stroke-width="3"/>
    <rect x="444" y="142" width="20" height="116" rx="10" fill="url(#glassFill)" stroke="url(#glassEdge)" stroke-width="3"/>
    <rect x="488" y="176" width="20" height="132" rx="10" fill="url(#glassFill)" stroke="url(#glassEdge)" stroke-width="3"/>
  </g>

  <!-- Twin server pills (moved up) -->
  <g filter="url(#softShadow)" transform="translate(0,-24)">
    <rect x="96" y="348" width="320" height="70" rx="28"
          fill="url(#pillFill)" stroke="#FFFFFF" stroke-opacity="0.16" stroke-width="4"/>
    <rect x="96" y="430" width="320" height="70" rx="28"
          fill="url(#pillFill)" stroke="#FFFFFF" stroke-opacity="0.14" stroke-width="4"/>

    <circle cx="132" cy="383" r="7" fill="#35D26A" fill-opacity="0.85"/>
    <rect x="170" y="378" width="140" height="10" rx="5" fill="#FFFFFF" fill-opacity="0.14"/>
    <rect x="332" y="372" width="58" height="22" rx="11" fill="#FFFFFF" fill-opacity="0.10"/>

    <circle cx="132" cy="465" r="7" fill="#3AA3FF" fill-opacity="0.80"/>
    <rect x="170" y="460" width="140" height="10" rx="5" fill="#FFFFFF" fill-opacity="0.14"/>
    <rect x="332" y="454" width="58" height="22" rx="11" fill="#FFFFFF" fill-opacity="0.10"/>
  </g>
</svg>
